#!OML:ASF I:\Actors\actors\Patient Classification 1\Patient 1\Session 1\Subject1.ASF
:FULLY-SPECIFIED
:DEGREES
919
root 0.852251 17.4821 9.0777 10.0194 5.40207 -8.68915
lowerback -0.828776 0.754281 6.78214
upperback -9.13423 1.45116 1.63161
thorax -9.10106 0.269926 -2.1517
lowerneck -15.0316 -6.05238 -3.62623
upperneck 13.0094 -9.00647 9.37716
head 7.06363 -3.71615 2.65656
rclavicle 6.06293e-015 2.78299e-014
rhumerus -52.8807 -24.2764 -64.0608
rradius 16.2698
rwrist 32.6008
rhand 8.48838 336.677
rfingers 7.12502
rthumb 33.6913 -50.1751
lclavicle 6.06293e-015 2.78299e-014
lhumerus -57.4241 37.2531 47.2292
lradius 10.3423
lwrist -56.0728
lhand -26.2375 -16.3294
lfingers 7.12502
lthumb 0.316336 373.65
rfemur -3.89616 24.0696 26.2441
rtibia 4.37959
rfoot -13.7377 -26.6342
rtoes 1.46715
lfemur 2.1511 -43.9539 -8.73325
ltibia -4.54079
lfoot -11.6511 47.0644
ltoes -1.65079
920
root 0.852136 17.4775 9.10494 10.0472 5.53311 -8.67944
lowerback -1.2097 0.810448 6.74335
upperback -9.03647 1.48252 1.59144
thorax -8.76231 0.299383 -2.16895
lowerneck -14.9349 -6.07577 -3.81325
upperneck 13.158 -9.06218 9.65073
head 7.12194 -3.72691 2.77045
rclavicle -1.69464e-014 -7.55382e-015
rhumerus -54.1723 -24.9027 -63.0186
rradius 15.8421
rwrist 33.6378
rhand 9.77339 336.655
rfingers 7.12502
rthumb 34.9114 -49.9219
lclavicle -1.69464e-014 -7.55382e-015
lhumerus -56.5697 36.0404 49.0152
lradius 10.666
lwrist -54.0079
lhand -24.5246 -13.2074
lfingers 7.12502
lthumb 1.97067 376.763
rfemur -3.60447 24.1938 26.31
rtibia 4.02022
rfoot -13.7292 -26.8725
rtoes 2.0213
lfemur 2.31334 -44.2706 -8.839
ltibia -4.59165
lfoot -11.8487 47.2662
ltoes -1.55415
921
root 0.852981 17.4745 9.13044 10.053 5.59373 -8.63482
lowerback -1.60024 0.85765 6.63859
upperback -8.89755 1.49921 1.58716
thorax -8.37607 0.330149 -2.10995
lowerneck -14.7179 -6.18956 -3.95367
upperneck 12.9535 -9.18301 9.7156
head 7.03662 -3.79951 2.80529
rclavicle -2.31087e-014 1.59028e-015
rhumerus -55.2547 -25.4453 -62.0331
rradius 15.4771
rwrist 34.3299
rhand 11.219 336.721
rfingers 7.12502
rthumb 36.2816 -49.5263
lclavicle -2.31087e-014 1.59028e-015
lhumerus -57.6695 36.9988 47.3432
lradius 10.5664
lwrist -55.0721
lhand -23.6964 -12.9685
lfingers 7.12502
lthumb 2.77056 376.993
rfemur -3.33582 24.341 26.3424
rtibia 3.76113
rfoot -13.5592 -27.0687
rtoes 2.38812
lfemur 2.54475 -44.6989 -9.06135
ltibia -4.61809
lfoot -12.2432 47.6078
ltoes -1.19332
922
root 0.853114 17.4716 9.15256 10.0267 5.57367 -8.63697
lowerback -1.91033 0.922513 6.58288
upperback -8.74919 1.5498 1.60333
thorax -8.02602 0.373512 -2.05908
lowerneck -14.657 -6.23676 -4.07733
upperneck 13.0151 -9.22782 9.7125
head 7.05448 -3.82751 2.82014
rclavicle 8.05078e-015 -2.78299e-015
rhumerus -56.3478 -26.227 -60.7115
rradius 15.1165
rwrist 35.3577
rhand 13.0527 336.956
rfingers 7.12502
rthumb 38.0156 -48.8393
lclavicle 8.05078e-015 -2.78299e-015
lhumerus -57.3899 36.7182 48.1631
lradius 10.8331
lwrist -54.1997
lhand -22.2156 -9.72507
lfingers 7.12502
lthumb 4.20053 380.213
rfemur -3.13766 24.5178 26.4277
rtibia 3.6587
rfoot -13.2258 -27.1731
rtoes 2.35925
lfemur 2.81249 -45.0632 -9.26481
ltibia -4.61278
lfoot -12.7372 47.9549
ltoes -0.681969
923
root 0.852794 17.4688 9.17136 9.96726 5.47693 -8.62987
lowerback -2.15644 1.02297 6.53783
upperback -8.60078 1.65196 1.5826
thorax -7.70939 0.438796 -2.05563
lowerneck -14.6214 -6.23848 -4.12797
upperneck 13.2854 -9.26017 9.7879
head 7.1445 -3.83188 2.84911
rclavicle -7.20594e-015 1.47101e-014
rhumerus -57.4044 -27.1084 -59.3656
rradius 14.8075
rwrist 36.5621
rhand 15.0384 336.836
rfingers 7.12502
rthumb 39.8878 -48.4234
lclavicle -7.20594e-015 1.47101e-014
lhumerus -58.0746 37.4739 47.1243
lradius 10.8865
lwrist -54.9096
lhand -20.8376 -7.88016
lfingers 7.12502
lthumb 5.53116 382.028
rfemur -3.00072 24.5996 26.4946
rtibia 3.67215
rfoot -13.1752 -27.1585
rtoes 2.48531
lfemur 3.07381 -45.1984 -9.49232
ltibia -4.55238
lfoot -13.162 48.139
ltoes -0.29337
924
root 0.853693 17.4663 9.18643 9.90413 5.31253 -8.55767
lowerback -2.40019 1.14597 6.45235
upperback -8.44898 1.7806 1.50944
thorax -7.38821 0.517916 -2.08458
lowerneck -14.1734 -6.23033 -3.90131
upperneck 13.018 -9.24946 9.62066
head 6.96025 -3.85218 2.77166
rclavicle -5.46658e-016 -1.94809e-014
rhumerus -58.1945 -27.766 -58.5504
rradius 14.6107
rwrist 37.3142
rhand 16.6082 336.184
rfingers 7.12502
rthumb 41.3633 -48.6162
lclavicle -5.46658e-016 -1.94809e-014
lhumerus -58.9893 38.4133 45.6421
lradius 10.945
lwrist -55.8801
lhand -19.6181 -6.98265
lfingers 7.12502
lthumb 6.70849 382.891
rfemur -2.91569 24.5955 26.471
rtibia 3.74922
rfoot -13.459 -27.0693
rtoes 3.18882
lfemur 3.32988 -45.1575 -9.81071
ltibia -4.48196
lfoot -13.4144 48.1925
ltoes 0.0191393
925
root 0.854856 17.4627 9.19662 9.86231 5.10588 -8.51357
lowerback -2.61787 1.25799 6.40529
upperback -8.31483 1.89936 1.44103
thorax -7.10333 0.588267 -2.12852
lowerneck -13.6966 -6.21593 -3.8009
upperneck 12.7805 -9.24772 9.69422
head 6.80085 -3.8628 2.7922
rclavicle -2.9122e-014 -9.14409e-015
rhumerus -58.6185 -28.0998 -58.3471
rradius 14.5221
rwrist 37.3885
rhand 17.5558 335.552
rfingers 7.12502
rthumb 42.2517 -48.9535
lclavicle -2.9122e-014 -9.14409e-015
lhumerus -59.6075 39.0851 44.6565
lradius 11.0546
lwrist -56.1666
lhand -18.4579 -6.23557
lfingers 7.12502
lthumb 7.82839 383.599
rfemur -2.91704 24.5671 26.4484
rtibia 3.88944
rfoot -13.5719 -26.9019
rtoes 3.82609
lfemur 3.50253 -44.9553 -10.0217
ltibia -4.43122
lfoot -13.627 48.1279
ltoes 0.527716
926
root 0.855722 17.4598 9.20353 9.80274 4.84937 -8.51313
lowerback -2.76309 1.3536 6.40235
upperback -8.19253 2.00562 1.40418
thorax -6.87561 0.648771 -2.16406
lowerneck -13.4855 -6.20326 -4.25151
upperneck 12.9418 -9.26845 10.3279
head 6.87237 -3.84457 3.0713
rclavicle -1.83876e-014 -5.1684e-015
rhumerus -58.872 -28.464 -58.1218
rradius 14.4274
rwrist 37.4512
rhand 18.1258 335.155
rfingers 7.12502
rthumb 42.7853 -49.1668
lclavicle -1.83876e-014 -5.1684e-015
lhumerus -59.8893 39.5135 44.2401
lradius 11.1713
lwrist -55.7759
lhand -17.3331 -5.41948
lfingers 7.12502
lthumb 8.91393 384.372
rfemur -2.93649 24.5262 26.468
rtibia 4.06999
rfoot -13.4551 -26.6776
rtoes 3.87022
lfemur 3.64548 -44.5346 -10.127
ltibia -4.43175
lfoot -13.7476 47.93
ltoes 0.902832
927
root 0.856623 17.4584 9.20983 9.69729 4.53342 -8.48961
lowerback -2.86308 1.46219 6.39633
upperback -8.06367 2.13189 1.35278
thorax -6.66501 0.718494 -2.21387
lowerneck -13.3182 -6.19397 -4.66348
upperneck 13.2691 -9.29548 10.8123
head 6.99545 -3.83365 3.29567
rclavicle 1.49089e-015 -3.57812e-015
rhumerus -59.1624 -29.1422 -57.4611
rradius 14.254
rwrist 38.0672
rhand 18.4015 335.112
rfingers 7.12502
rthumb 43.0431 -49.1183
lclavicle 1.49089e-015 -3.57812e-015
lhumerus -59.475 39.3757 44.922
lradius 11.3369
lwrist -54.3714
lhand -16.3842 -4.73697
lfingers 7.12502
lthumb 9.82954 385.014
rfemur -2.89295 24.5231 26.4753
rtibia 4.2467
rfoot -13.3394 -26.4605
rtoes 3.59482
lfemur 3.83977 -43.9043 -10.2779
ltibia -4.48013
lfoot -13.5756 47.6221
ltoes 0.630222
928
root 0.857625 17.4571 9.21488 9.59634 4.26934 -8.45579
lowerback -2.9459 1.55048 6.38818
upperback -7.97439 2.23457 1.29683
thorax -6.50947 0.774227 -2.26684
lowerneck -12.6512 -6.13774 -4.18714
upperneck 13.0851 -9.21787 10.3049
head 6.76473 -3.84259 3.07988
rclavicle 1.40143e-014 3.73715e-014
rhumerus -59.3136 -29.7292 -56.9205
rradius 14.1036
rwrist 38.6633
rhand 18.4708 335.23
rfingers 7.12502
rthumb 43.108 -48.9779
lclavicle 1.40143e-014 3.73715e-014
lhumerus -58.6351 38.8086 46.2877
lradius 11.5006
lwrist -52.4978
lhand -15.7074 -4.24014
lfingers 7.12502
lthumb 10.4824 385.479
rfemur -2.83476 24.5348 26.4703
rtibia 4.38944
rfoot -13.2713 -26.3093
rtoes 3.28898
lfemur 3.93816 -43.1916 -10.3824
ltibia -4.45269
lfoot -13.3528 47.1715
ltoes 0.18097
929
root 0.858798 17.4552 9.2184 9.48909 4.10261 -8.43767
lowerback -2.979 1.58408 6.37633
upperback -7.92271 2.27193 1.26882
thorax -6.43022 0.795733 -2.28871
lowerneck -11.9648 -6.06561 -3.7845
upperneck 12.8983 -9.12239 9.92618
head 6.54049 -3.83548 2.92176
rclavicle -4.37326e-015 -4.77083e-015
rhumerus -59.1249 -29.8932 -56.977
rradius 14.0346
rwrist 38.7531
rhand 18.6363 335.166
rfingers 7.12502
rthumb 43.2626 -48.986
lclavicle -4.37326e-015 -4.77083e-015
lhumerus -57.8874 38.2687 47.5122
lradius 11.6031
lwrist -51.0994
lhand -15.2871 -4.02331
lfingers 7.12502
lthumb 10.8878 385.674
rfemur -2.75067 24.482 26.4852
rtibia 4.4766
rfoot -13.216 -26.1593
rtoes 2.97358
lfemur 4.03189 -42.6532 -10.4673
ltibia -4.39977
lfoot -13.2616 46.7818
ltoes 0.0763086
930
root 0.86067 17.4533 9.22136 9.36061 3.97368 -8.40588
lowerback -2.97689 1.58227 6.33212
upperback -7.86122 2.26557 1.27103
thorax -6.36619 0.798185 -2.26107
lowerneck -11.9568 -6.06782 -4.38073
upperneck 13.4693 -9.18152 10.5546
head 6.78497 -3.82633 3.21303
rclavicle 2.31087e-014 2.3059e-014
rhumerus -58.6184 -29.7414 -57.4577
rradius 14.005
rwrist 38.6125
rhand 19.0004 335.081
rfingers 7.12502
rthumb 43.6028 -48.9483
lclavicle 2.31087e-014 2.3059e-014
lhumerus -57.2845 37.917 48.477
lradius 11.6471
lwrist -50.3553
lhand -15.1029 -4.26996
lfingers 7.12502
lthumb 11.0655 385.418
rfemur -2.61621 24.3834 26.4819
rtibia 4.49791
rfoot -13.1763 -25.967
rtoes 2.78802
lfemur 4.29876 -42.5274 -10.6963
ltibia -4.42486
lfoot -13.3122 46.7569
ltoes 0.255043
931
root 0.864518 17.4517 9.22378 9.28298 3.86454 -8.34472
lowerback -3.01429 1.55152 6.2498
upperback -7.83241 2.22033 1.30695
thorax -6.32035 0.783627 -2.17554
lowerneck -12.1178 -6.05781 -4.91386
upperneck 14.394 -9.23471 10.9599
head 7.15956 -3.8126 3.42275
rclavicle 2.2413e-014 -2.62396e-014
rhumerus -57.9306 -29.3917 -58.0544
rradius 13.9655
rwrist 38.5046
rhand 19.3784 335.364
rfingers 7.12502
rthumb 43.9555 -48.5359
lclavicle 2.2413e-014 -2.62396e-014
lhumerus -56.8993 37.7597 49.1522
lradius 11.6506
lwrist -50.1226
lhand -15.1534 -4.81482
lfingers 7.12502
lthumb 11.0168 384.876
rfemur -2.50511 24.2606 26.4091
rtibia 4.45462
rfoot -13.1811 -25.7624
rtoes 2.9075
lfemur 4.56062 -42.6258 -10.987
ltibia -4.45543
lfoot -13.4958 46.9249
ltoes 0.511333
